<?xml version="1.0" encoding="utf-8"?>
<!-- Generated by IcoMoon.io -->
<!DOCTYPE svg PUBLIC "-//W3C//DTD SVG 1.1//EN" "http://www.w3.org/Graphics/SVG/1.1/DTD/svg11.dtd">

<svg version="1.1" xmlns="http://www.w3.org/2000/svg" xmlns:xlink="http://www.w3.org/1999/xlink" width="620" height="60" viewBox="0 0 620 60">
<g transform="translate(0 0)">
	<path d="M0 20h10v-20h-10v20zM6.25 2.5h2.5v2.5h-2.5v-2.5zM6.25 7.5h2.5v2.5h-2.5v-2.5zM6.25 12.5h2.5v2.5h-2.5v-2.5zM1.25 2.5h2.5v2.5h-2.5v-2.5zM1.25 7.5h2.5v2.5h-2.5v-2.5zM1.25 12.5h2.5v2.5h-2.5v-2.5zM11.25 6.25h8.75v1.25h-8.75zM11.25 20h2.5v-5h3.75v5h2.5v-11.25h-8.75z" fill="#223388"></path>
</g>
<g transform="translate(40 0)">
	<path d="M12.5 11.25c2.068 0 3.943 0.841 5.301 2.199l-1.767 1.767c-0.905-0.905-2.155-1.466-3.534-1.466s-2.628 0.561-3.534 1.466l-1.767-1.767c1.358-1.358 3.233-2.199 5.301-2.199zM3.661 9.911c2.361-2.361 5.5-3.661 8.839-3.661s6.478 1.3 8.839 3.661l-1.768 1.768c-1.889-1.889-4.4-2.929-7.071-2.929s-5.182 1.040-7.071 2.929l-1.768-1.768zM19.312 2.626c2.084 0.881 3.955 2.143 5.562 3.75v0l-1.768 1.768c-2.833-2.833-6.6-4.393-10.607-4.393s-7.773 1.56-10.607 4.393l-1.768-1.768c1.607-1.607 3.478-2.868 5.562-3.75 2.158-0.913 4.45-1.376 6.812-1.376s4.654 0.463 6.812 1.376zM11.25 17.5c0-0.69 0.56-1.25 1.25-1.25s1.25 0.56 1.25 1.25c0 0.69-0.56 1.25-1.25 1.25s-1.25-0.56-1.25-1.25z" fill="#223388"></path>
</g>
<g transform="translate(80 0)">
	<path d="M20 18.75v-1.25h-1.25v-7.5h1.25v-1.25h-3.75v1.25h1.25v7.5h-3.75v-7.5h1.25v-1.25h-3.75v1.25h1.25v7.5h-3.75v-7.5h1.25v-1.25h-3.75v1.25h1.25v7.5h-3.75v-7.5h1.25v-1.25h-3.75v1.25h1.25v7.5h-1.25v1.25h-1.25v1.25h21.25v-1.25h-1.25z" fill="#223388"></path>
	<path d="M10 0h1.25l10 6.25v1.25h-21.25v-1.25l10-6.25z" fill="#223388"></path>
</g>
<g transform="translate(120 0)">
	<path d="M6.25 1.25h-5v5h5v-5zM7.5 0v0 7.5h-7.5v-7.5h7.5zM2.5 2.5h2.5v2.5h-2.5zM18.75 1.25h-5v5h5v-5zM20 0v0 7.5h-7.5v-7.5h7.5zM15 2.5h2.5v2.5h-2.5zM6.25 13.75h-5v5h5v-5zM7.5 12.5v0 7.5h-7.5v-7.5h7.5zM2.5 15h2.5v2.5h-2.5zM8.75 0h1.25v1.25h-1.25zM10 1.25h1.25v1.25h-1.25zM8.75 2.5h1.25v1.25h-1.25zM10 3.75h1.25v1.25h-1.25zM8.75 5h1.25v1.25h-1.25zM10 6.25h1.25v1.25h-1.25zM8.75 7.5h1.25v1.25h-1.25zM8.75 10h1.25v1.25h-1.25zM10 11.25h1.25v1.25h-1.25zM8.75 12.5h1.25v1.25h-1.25zM10 13.75h1.25v1.25h-1.25zM8.75 15h1.25v1.25h-1.25zM10 16.25h1.25v1.25h-1.25zM8.75 17.5h1.25v1.25h-1.25zM10 18.75h1.25v1.25h-1.25zM18.75 10h1.25v1.25h-1.25zM1.25 10h1.25v1.25h-1.25zM2.5 8.75h1.25v1.25h-1.25zM0 8.75h1.25v1.25h-1.25zM5 8.75h1.25v1.25h-1.25zM6.25 10h1.25v1.25h-1.25zM7.5 8.75h1.25v1.25h-1.25zM11.25 10h1.25v1.25h-1.25zM12.5 8.75h1.25v1.25h-1.25zM13.75 10h1.25v1.25h-1.25zM15 8.75h1.25v1.25h-1.25zM16.25 10h1.25v1.25h-1.25zM17.5 8.75h1.25v1.25h-1.25zM18.75 12.5h1.25v1.25h-1.25zM11.25 12.5h1.25v1.25h-1.25zM12.5 11.25h1.25v1.25h-1.25zM13.75 12.5h1.25v1.25h-1.25zM16.25 12.5h1.25v1.25h-1.25zM17.5 11.25h1.25v1.25h-1.25zM18.75 15h1.25v1.25h-1.25zM11.25 15h1.25v1.25h-1.25zM12.5 13.75h1.25v1.25h-1.25zM15 13.75h1.25v1.25h-1.25zM16.25 15h1.25v1.25h-1.25zM17.5 13.75h1.25v1.25h-1.25zM18.75 17.5h1.25v1.25h-1.25zM12.5 16.25h1.25v1.25h-1.25zM13.75 17.5h1.25v1.25h-1.25zM15 16.25h1.25v1.25h-1.25zM16.25 17.5h1.25v1.25h-1.25zM12.5 18.75h1.25v1.25h-1.25zM15 18.75h1.25v1.25h-1.25zM17.5 18.75h1.25v1.25h-1.25z" fill="#223388"></path>
</g>
<g transform="translate(160 0)">
	<path d="M18.125 2.5h-16.25c-1.031 0-1.875 0.844-1.875 1.875v11.25c0 1.031 0.844 1.875 1.875 1.875h16.25c1.031 0 1.875-0.844 1.875-1.875v-11.25c0-1.031-0.844-1.875-1.875-1.875zM1.875 3.75h16.25c0.339 0 0.625 0.286 0.625 0.625v1.875h-17.5v-1.875c0-0.339 0.286-0.625 0.625-0.625zM18.125 16.25h-16.25c-0.339 0-0.625-0.286-0.625-0.625v-5.625h17.5v5.625c0 0.339-0.286 0.625-0.625 0.625zM2.5 12.5h1.25v2.5h-1.25zM5 12.5h1.25v2.5h-1.25zM7.5 12.5h1.25v2.5h-1.25z" fill="#223388"></path>
</g>
<g transform="translate(200 0)">
	<path d="M10 0c-3.452 0-6.25 2.798-6.25 6.25 0 6.25 6.25 13.75 6.25 13.75s6.25-7.5 6.25-13.75c0-3.452-2.798-6.25-6.25-6.25zM10 10.078c-2.114 0-3.828-1.714-3.828-3.828s1.714-3.828 3.828-3.828 3.828 1.714 3.828 3.828-1.714 3.828-3.828 3.828zM7.578 6.25c0-1.338 1.084-2.422 2.422-2.422s2.422 1.084 2.422 2.422c0 1.338-1.084 2.422-2.422 2.422s-2.422-1.084-2.422-2.422z" fill="#223388"></path>
</g>
<g transform="translate(240 0)">
	<path d="M16.25 3.75v-2.5h-12.5v2.5h-3.75v2.5c0 2.071 1.679 3.75 3.75 3.75 0.392 0 0.77-0.060 1.125-0.172 0.902 1.289 2.278 2.223 3.875 2.547v3.875h-1.25c-1.381 0-2.5 1.119-2.5 2.5h10c0-1.381-1.119-2.5-2.5-2.5h-1.25v-3.875c1.597-0.324 2.973-1.258 3.875-2.547 0.355 0.112 0.733 0.172 1.125 0.172 2.071 0 3.75-1.679 3.75-3.75v-2.5h-3.75zM3.75 8.516c-1.249 0-2.266-1.016-2.266-2.266v-1.25h2.266v1.25c0 0.785 0.145 1.536 0.409 2.228-0.133 0.024-0.269 0.038-0.409 0.038zM18.516 6.25c0 1.249-1.016 2.266-2.266 2.266-0.14 0-0.276-0.013-0.409-0.038 0.264-0.692 0.409-1.443 0.409-2.228v-1.25h2.266v1.25z" fill="#223388"></path>
</g>
<g transform="translate(280 0)">
	<path d="M15.069 6.25c0.354-0.252 0.694-0.532 1.005-0.843 0.652-0.652 1.089-1.455 1.229-2.26 0.153-0.883-0.072-1.702-0.618-2.248-0.436-0.436-1.026-0.666-1.706-0.666-0.969 0-1.991 0.465-2.802 1.277-1.298 1.298-2.055 3.091-2.462 4.37-0.302-1.285-0.902-3.020-2.071-4.189-0.627-0.627-1.428-0.949-2.184-0.949-0.618 0-1.207 0.215-1.646 0.654-0.976 0.976-0.844 2.691 0.295 3.83 0.406 0.406 0.881 0.743 1.381 1.024h-4.239v5h1.25v8.75h15v-8.75h1.25v-5h-3.681zM13.17 2.504c0.541-0.541 1.217-0.865 1.808-0.865 0.209 0 0.502 0.044 0.712 0.254 0.508 0.508 0.223 1.686-0.611 2.519-0.858 0.858-2.013 1.449-3.016 1.837h-0.99c0.363-1.124 1.017-2.665 2.097-3.746zM4.569 3.142c-0.014-0.178-0.001-0.513 0.238-0.752 0.2-0.2 0.465-0.242 0.651-0.242v0c0.415 0 0.849 0.196 1.19 0.537 0.662 0.662 1.206 1.714 1.576 3.044 0.010 0.036 0.020 0.072 0.029 0.107-0.035-0.009-0.071-0.019-0.107-0.029-1.33-0.369-2.383-0.914-3.044-1.576-0.309-0.309-0.503-0.706-0.533-1.090zM8.75 18.75h-5v-8.125h5v8.125zM8.75 10h-6.25v-2.5h6.25v2.5zM16.25 18.75h-5v-8.125h5v8.125zM17.5 10h-6.25v-2.5h6.25v2.5z" fill="#223388"></path>
</g>
<g transform="translate(320 0)">
	<path d="M17.366 3.511c0.148-0.188 0.175-0.444 0.071-0.659s-0.323-0.352-0.562-0.352h-13.75c-0.239 0-0.458 0.137-0.562 0.352s-0.077 0.471 0.071 0.659l6.116 7.785v7.454h-1.875c-0.345 0-0.625 0.28-0.625 0.625s0.28 0.625 0.625 0.625h6.25c0.345 0 0.625-0.28 0.625-0.625s-0.28-0.625-0.625-0.625h-1.875v-7.454l6.116-7.785zM15.589 3.75l-1.964 2.5h-7.25l-1.964-2.5h11.178z" fill="#223388"></path>
</g>
<g transform="translate(360 0)">
	<path d="M4.375 0c-2.071 0-3.75 1.959-3.75 4.375 0 2.069 1.231 3.802 2.885 4.258l-0.621 10.12c-0.042 0.686 0.486 1.248 1.173 1.248h0.625c0.688 0 1.216-0.561 1.173-1.248l-0.621-10.12c1.654-0.456 2.885-2.189 2.885-4.258 0-2.416-1.679-4.375-3.75-4.375zM16.979 0l-1.042 6.25h-0.781l-0.521-6.25h-0.521l-0.521 6.25h-0.781l-1.042-6.25h-0.521v8.125c0 0.345 0.28 0.625 0.625 0.625h1.628l-0.614 10.002c-0.042 0.686 0.486 1.248 1.173 1.248h0.625c0.688 0 1.216-0.561 1.173-1.248l-0.614-10.002h1.628c0.345 0 0.625-0.28 0.625-0.625v-8.125h-0.521z" fill="#223388"></path>
</g>
<g transform="translate(400 0)">
	<path d="M15 12.499l-3.571-3.571 8.571-6.429-2.5-2.5-10.713 4.286-3.373-3.373c-0.972-0.972-2.33-1.205-3.018-0.518s-0.454 2.045 0.518 3.018l3.373 3.373-4.286 10.714 2.5 2.5 6.429-8.572 3.571 3.571v5h2.5l1.25-3.75 3.75-1.25v-2.5l-5 0z" fill="#223388"></path>
</g>
<g transform="translate(440 0)">
	<path d="M20 11.25l-2.5-5h-3.75v-2.5c0-0.688-0.563-1.25-1.25-1.25h-11.25c-0.688 0-1.25 0.563-1.25 1.25v10l1.25 1.25h1.585c-0.213 0.368-0.335 0.794-0.335 1.25 0 1.381 1.119 2.5 2.5 2.5s2.5-1.119 2.5-2.5c0-0.456-0.122-0.882-0.335-1.25h6.921c-0.213 0.368-0.335 0.794-0.335 1.25 0 1.381 1.119 2.5 2.5 2.5s2.5-1.119 2.5-2.5c0-0.456-0.122-0.882-0.335-1.25h1.585v-3.75zM13.75 11.25v-3.75h2.591l1.875 3.75h-4.466z" fill="#223388"></path>
</g>
<g transform="translate(480 0)">
	<path d="M13.75 20h6.25l-5-20h-3.75l0.625 5h-3.75l0.625-5h-3.75l-5 20h6.25l0.625-5h6.25l0.625 5zM7.188 12.5l0.625-5h4.375l0.625 5h-5.625z" fill="#223388"></path>
</g>
<g transform="translate(520 0)">
	<path d="M8.598 12.417c-0.26 0-0.52-0.099-0.718-0.297-1.858-1.858-1.858-4.882 0-6.74l3.75-3.75c0.9-0.9 2.097-1.396 3.37-1.396s2.47 0.496 3.37 1.396c1.858 1.858 1.858 4.882 0 6.74l-1.714 1.714c-0.397 0.397-1.040 0.397-1.436 0s-0.397-1.040 0-1.436l1.714-1.714c1.066-1.066 1.066-2.801 0-3.867-0.516-0.516-1.203-0.801-1.934-0.801s-1.417 0.284-1.934 0.801l-3.75 3.75c-1.066 1.066-1.066 2.801 0 3.867 0.397 0.397 0.397 1.040 0 1.436-0.198 0.198-0.458 0.297-0.718 0.297z" fill="#223388"></path>
	<path d="M5 19.766c-1.273 0-2.47-0.496-3.37-1.396-1.858-1.858-1.858-4.882 0-6.74l1.714-1.714c0.397-0.397 1.040-0.397 1.436 0s0.397 1.040 0 1.436l-1.714 1.714c-1.066 1.066-1.066 2.801 0 3.867 0.516 0.516 1.203 0.801 1.933 0.801s1.417-0.284 1.934-0.801l3.75-3.75c1.066-1.066 1.066-2.801 0-3.867-0.397-0.397-0.397-1.040 0-1.436s1.040-0.397 1.436 0c1.858 1.858 1.858 4.881 0 6.74l-3.75 3.75c-0.9 0.9-2.097 1.396-3.37 1.396z" fill="#223388"></path>
</g>
<g transform="translate(560 0)">
	<path d="M16.68 0h-13.359c-1.826 0-3.32 1.494-3.32 3.32v13.359c0 1.826 1.494 3.32 3.32 3.32h13.359c1.826 0 3.32-1.494 3.32-3.32v-13.359c0-1.826-1.494-3.32-3.32-3.32zM6.402 8.75h7.195c0.136 0.392 0.211 0.812 0.211 1.25 0 2.1-1.709 3.809-3.809 3.809s-3.809-1.709-3.809-3.809c0-0.438 0.074-0.858 0.211-1.25zM17.5 8.751v7.499c0 0.688-0.563 1.25-1.25 1.25h-12.5c-0.688 0-1.25-0.563-1.25-1.25v-7.5h1.955c-0.091 0.402-0.139 0.821-0.139 1.25 0 3.134 2.55 5.684 5.684 5.684s5.684-2.55 5.684-5.684c0-0.429-0.048-0.848-0.139-1.25l1.955 0.001zM17.5 4.375c0 0.344-0.281 0.625-0.625 0.625h-1.25c-0.344 0-0.625-0.281-0.625-0.625v-1.25c0-0.344 0.281-0.625 0.625-0.625h1.25c0.344 0 0.625 0.281 0.625 0.625v1.25z" fill="#223388"></path>
</g>
<g transform="translate(0 40)">
	<path d="M15.625 0c-1.283 0-2.291 0.881-3.015 2.241l-0.013-0.008c-1.051 2.058-2.616 3.391-4.331 3.391h-5.766c-1.402 0-2.5 1.373-2.5 3.125 0 1.753 1.098 3.125 2.5 3.125 0.689 0.003 1.247 0.56 1.247 1.25v5.625c0 0.691 0.56 1.25 1.25 1.25h2.5c0.69 0 1.25-0.559 1.25-1.25v-0.625c0-0.625-0.625-0.904-0.625-1.25v-4.375c0-0.014 0.010-0.024 0.011-0.039 0.006-0.089 0.031-0.172 0.070-0.247 0.011-0.021 0.023-0.037 0.037-0.055 0.050-0.074 0.113-0.136 0.19-0.183 0.004-0.003 0.005-0.006 0.009-0.009 0.002 0 0.004-0.002 0.007-0.002 0.050-0.028 0.11-0.034 0.166-0.050 1.578 0.168 3.006 1.441 3.986 3.358l0.016-0.008c0.724 1.356 1.73 2.234 3.012 2.234 2.873 0 4.375-4.402 4.375-8.75s-1.502-8.75-4.375-8.75zM12.5 8.75c0-0.648 0.038-1.274 0.103-1.875h1.772c0.69 0 1.25 0.84 1.25 1.875 0 1.036-0.56 1.875-1.25 1.875h-1.772c-0.064-0.601-0.103-1.226-0.103-1.875zM1.25 8.75c0-1.035 0.56-1.875 1.25-1.875h4.384c-0.387 0.456-0.634 1.117-0.634 1.875 0 0.759 0.246 1.421 0.634 1.875h-4.384c-0.69 0-1.25-0.839-1.25-1.875zM7.497 18.75h-2.5v-5.625c0-0.456-0.122-0.881-0.336-1.25h0.436v0.008h1.88c-0.067 0.194-0.106 0.401-0.106 0.617v4.375c0 0.602 0.336 1.002 0.537 1.241 0.027 0.033 0.060 0.067 0.088 0.104v0.53zM8.266 10.633h-0.141v-0.008c-0.69 0-1.25-0.839-1.25-1.875 0-1.035 0.56-1.875 1.25-1.875h0.141c1.179 0 2.282-0.464 3.254-1.261-0.179 1.006-0.27 2.072-0.27 3.136 0 1.068 0.091 2.138 0.271 3.144-0.972-0.798-2.076-1.262-3.255-1.262zM15.625 16.25c-1.261 0-2.344-1.794-2.838-4.375h1.588c1.401 0 2.5-1.372 2.5-3.125 0-1.752-1.099-3.125-2.5-3.125h-1.588c0.494-2.579 1.577-4.375 2.838-4.375 1.726 0 3.125 3.358 3.125 7.5s-1.399 7.5-3.125 7.5z" fill="#223388"></path>
</g>

</svg>
